# xmcd
#
# Track frame offsets: 
#        150
#        11977
#        25146
#        39291
#        50943
#        62856
#        72970
#        85103
#        95221
#        105634
#        116563
#        131311
#        142091
#        155089
#        167463
#        178834
#        191386
#        203847
#        214068
#        228027
#
# Disc length: 3230 seconds
#
# Revision: 0
# Processed by: cddbd v1.5.2PL0 Copyright (c) Steve Scherf et al.
# Submitted via: ExactAudioCopyFreeDBPlugin 1.0
#
DISCID=1d0c9c14
DTITLE=Various Artist - 60 Country Hits
DYEAR=2019
DGENRE=Country
TTITLE0=Hank Williams - Settin' The Woods On Fire
TTITLE1=Webb Pierce - Sparkling Brown Eyes
TTITLE2=Patsy Montana - I Want To Be A Cowboy's Sweetheart
TTITLE3=Hank Snow - The Last Ride
TTITLE4=Stonewall Jackson - Smoke Along The Track
TTITLE5=Skeeter Davis - Set Him Free
TTITLE6=Willie Nelson - Funny How Time Slips Away
TTITLE7=Dolly Parton - Release Me
TTITLE8=Marty Robbins - Bouquet Of Roses
TTITLE9=Kitty Wells - Searching (For Someone Else)
TTITLE10=Ray Charles - You Don't Know Me
TTITLE11=Leroy Van Dyke - The Image Of Me
TTITLE12=Bill Monroe - Will You Be Loving Another Man
TTITLE13=Hank Williams - Move It On Over
TTITLE14=The Stanley Brothers - I'm Lonesome Without You
TTITLE15="Little" Jimmy Dickens - A-Sleepin' At The Foot Of My Bed
TTITLE16=Porter Wagoner - Company's Comin'
TTITLE17=Tommy Collins - Smooth Sailin'
TTITLE18=Willie Nelson - Home Is Where You're Happy
TTITLE19=The Carter Familiy - Will The Circle Be Unbroken
EXTD=
EXTT0=
EXTT1=
EXTT2=
EXTT3=
EXTT4=
EXTT5=
EXTT6=
EXTT7=
EXTT8=
EXTT9=
EXTT10=
EXTT11=
EXTT12=
EXTT13=
EXTT14=
EXTT15=
EXTT16=
EXTT17=
EXTT18=
EXTT19=
PLAYORDER=
